<?xml version="1.0" encoding="utf-8"?>
<!-- Svg Vector Icons : http://www.onlinewebfonts.com/icon -->
<!DOCTYPE svg PUBLIC "-//W3C//DTD SVG 1.1//EN" "http://www.w3.org/Graphics/SVG/1.1/DTD/svg11.dtd">
<svg version="1.1" xmlns="http://www.w3.org/2000/svg" xmlns:xlink="http://www.w3.org/1999/xlink" x="0px" y="0px" viewBox="0 0 1000 1000" enable-background="new 0 0 1000 1000" xml:space="preserve">
<metadata> Svg Vector Icons : http://www.onlinewebfonts.com/icon </metadata>
<g><g transform="translate(0.000000,511.000000) scale(0.100000,-0.100000)"><path d="M1990.2,4579.6c-396.5-394.4-430.4-434.7-430.4-504.6c0-67.8,33.9-108.1,443.1-515.2c434.7-432.5,447.4-443.1,515.2-428.3c97.5,19.1,152.7,80.6,152.7,171.7c0,67.9-25.4,99.7-252.3,328.7l-254.4,254.4H2885c534.3,0,733.6,8.5,773.9,27.6c114.5,57.3,133.6,199.3,42.4,290.5c-40.3,40.3-74.2,42.4-788.8,42.4h-746.3l246,250.2c133.6,135.7,250.2,269.3,258.7,292.6c17,55.1-19.1,154.8-67.8,190.8c-19.1,17-70,29.7-110.3,29.7C2424.9,5010,2384.6,4976.1,1990.2,4579.6z"/><path d="M6919.9,4980.3c-57.2-42.4-82.7-131.5-57.2-197.2c10.6-33.9,127.2-167.5,258.7-296.8l237.5-239.6H6621h-740l-63.6-63.6c-53-55.1-61.5-76.3-50.9-133.6c8.5-38.2,31.8-86.9,57.2-110.3c40.3-40.3,74.2-42.4,786.6-48.8l746.3-6.4l-252.3-252.3c-226.9-229-252.3-260.8-252.3-328.7c0-89.1,55.1-152.7,150.5-171.7c63.6-12.7,84.8,4.2,481.3,385.9c229,218.4,430.4,419.8,447.4,445.3c17,27.6,31.8,80.6,31.8,118.7c0,61.5-46.7,116.6-430.4,498.3C7138.3,4976.1,7098,5010,7030.2,5010C6989.9,5010,6939,4997.3,6919.9,4980.3z"/><path d="M4613,4588.1c-169.6-55.1-315.9-192.9-411.3-385.9l-57.3-118.8l-42.4-1577.5c-23.3-867.2-46.6-1619.9-53-1670.8l-12.7-93.3l-103.9,165.4c-116.6,180.2-315.9,400.7-405,447.4c-31.8,17-108.1,29.7-167.5,29.7c-267.2,0-536.4-142.1-638.2-339.2c-76.3-144.2-76.3-237.5,6.4-487.7c36-110.3,97.5-358.3,137.8-551.3c299-1422.7,527.9-1868,1443.9-2800.9l345.6-352v-360.4c0-267.1,8.5-388,33.9-474.9c110.2-373.2,396.5-659.4,771.8-769.7c163.3-50.9,1499.1-50.9,1687.7,0c358.3,93.3,619.1,335,746.3,695.5c48.8,137.8,55.1,186.6,63.6,606.4l8.5,455.9l59.4,95.4c93.3,144.2,205.7,402.9,313.8,720.9l99.7,286.2v1399.4c0,1378.2,0,1401.5-44.5,1496.9c-63.6,133.6-167.5,246-292.6,311.7c-93.3,48.8-135.7,57.3-290.5,57.3c-178.1,0-186.6-2.1-273.5-72.1c-48.8-38.2-89.1-65.7-93.3-63.6c-2.1,4.2-14.8,86.9-29.7,184.5c-57.2,409.2-273.5,623.4-631.8,623.4c-118.8,0-180.2-10.6-271.4-53l-118.7-55.1l-33.9,67.8c-70,133.6-159,224.8-288.4,288.4c-167.5,84.8-330.8,89.1-515.2,12.7c-70-29.7-133.6-53-142.1-53c-10.6,0-17,417.7-17,928.7v926.6l-50.9,110.3c-63.6,133.6-190.8,260.8-326.5,324.4C4914.1,4594.4,4702.1,4617.7,4613,4588.1z M4960.8,4178.8l70-70l12.7-1070.7c8.5-589.4,14.9-1261.6,14.9-1494.8c0-356.2,6.4-432.5,33.9-472.8c50.9-74.2,125.1-93.3,209.9-59.4c89.1,38.2,103.9,84.8,148.4,500.4c21.2,180.2,48.8,328.7,65.7,356.2c110.3,171.7,436.8,197.2,506.8,40.3c17-38.2,59.4-258.7,95.4-491.9c57.2-388,67.9-428.3,118.7-470.7c72.1-63.6,165.4-63.6,231.1,4.2c50.9,48.8,53,61.5,53,347.7v294.7l65.7,55.1c120.9,101.8,364.7,59.4,434.7-76.3c23.3-42.4,46.7-176,63.6-356.2c17-156.9,48.8-400.7,72.1-538.6c48.8-290.5,84.8-352,205.7-352c108.1,0,165.4,70,195.1,237.5c53,303.2,146.3,483.4,252.3,483.4c82.7,0,190.8-63.6,237.5-137.8c40.3-67.9,42.4-101.8,42.4-1386.7v-1318.8l-86.9-269.3c-108.1-328.7-205.7-549.2-311.7-691.2l-78.5-108.1l-10.6-519.5c-10.6-515.2-10.6-519.5-70-640.3c-76.3-154.8-252.3-318-400.7-371.1c-101.8-33.9-186.6-38.2-843.9-36.1c-714.5,0-733.6,2.1-856.6,50.9c-167.5,63.6-309.6,205.7-373.2,373.2c-46.7,114.5-50.9,165.4-59.4,578.9l-8.5,455.9l-364.7,360.4c-371.1,368.9-638.2,680.6-824.8,966.8C3550.8-1264,3421.4-886.5,3224.3,37.9c-42.4,199.3-106,447.4-139.9,553.4c-74.2,235.4-78.4,324.4-12.7,385.9c55.1,50.9,146.3,89,216.3,89c112.4,0,330.8-265,477.1-581c70-148.4,95.4-239.6,139.9-502.5c55.1-330.8,99.6-458,182.3-515.3c72.1-50.9,171.7-42.4,229,19.1l50.9,53l61.5,2200.8c33.9,1208.6,70,2234.8,80.6,2277.2c10.6,42.4,53,112.4,91.2,154.8c63.6,65.7,82.7,74.2,182.3,74.2C4878.1,4246.7,4901.4,4238.2,4960.8,4178.8z"/></g></g>
</svg>